<svg xmlns="http://www.w3.org/2000/svg" aria-hidden="true" style="position:absolute;width:0;height:0;overflow:hidden"><defs><symbol id="icon-facebook" viewBox="0 0 32 32"><path d="M32 16.04C32 7.186 24.832 0 16 0S0 7.186 0 16.04c0 7.763 5.504 14.228 12.8 15.719V20.852H9.6V16.04h3.2v-4.01c0-3.096 2.512-5.614 5.6-5.614h4v4.812h-3.2c-.88 0-1.6.722-1.6 1.604v3.208h4.8v4.812h-4.8V32c8.08-.802 14.4-7.635 14.4-15.96z"/></symbol><symbol id="icon-mail" viewBox="0 0 28 22"><path d="M0.00399995 4.303C0.0547569 3.14469 0.550632 2.05067 1.38825 1.24901C2.22586 0.447347 3.34058 -8.09369e-05 4.5 1.09818e-08H23.5C24.6594 -8.09369e-05 25.7741 0.447347 26.6118 1.24901C27.4494 2.05067 27.9452 3.14469 27.996 4.303L26.52 5.123L14 11.864L1.48 5.123L0.00399995 4.303ZM0 6.588V17.5C0 18.6935 0.474106 19.8381 1.31802 20.682C2.16193 21.5259 3.30653 22 4.5 22H23.5C24.6935 22 25.8381 21.5259 26.682 20.682C27.5259 19.8381 28 18.6935 28 17.5V6.588L27.474 6.881L14.474 13.881C14.3283 13.9594 14.1655 14.0005 14 14.0005C13.8345 14.0005 13.6717 13.9594 13.526 13.881L0.514 6.874L0 6.588Z"/></symbol><symbol id="icon-phone" viewBox="0 0 32 32"><path stroke-linecap="round" stroke-linejoin="round" stroke-width="2.353" d="M21.647 19.956c-3.757 3.953-13.339-5.544-9.568-9.512 2.303-2.424-.298-5.192-1.738-7.23-2.703-3.82-8.633 1.454-8.455 4.809.569 10.582 12.015 23.122 23.099 22.027 3.467-.342 7.451-6.604 3.473-8.893-1.987-1.145-4.718-3.404-6.811-1.203"/></symbol><symbol id="icon-burger" viewBox="0 0 32 32"><path stroke-linecap="round" stroke-linejoin="round" stroke-width="2.667" d="M4 8h24M4 16h24M4 24h24"/></symbol><symbol id="icon-exit" viewBox="0 0 32 32"><path stroke-linecap="round" stroke-linejoin="round" stroke-width="2.667" d="M24 8 8 24M8 8l16 16"/></symbol></defs></svg>