<svg xmlns="http://www.w3.org/2000/svg" aria-hidden="true" style="position:absolute;width:0;height:0;overflow:hidden"><defs><symbol id="icon-facebook" viewBox="0 0 32 32"><path d="M32 16.04C32 7.186 24.832 0 16 0S0 7.186 0 16.04c0 7.763 5.504 14.228 12.8 15.719V20.852H9.6V16.04h3.2v-4.01c0-3.096 2.512-5.614 5.6-5.614h4v4.812h-3.2c-.88 0-1.6.722-1.6 1.604v3.208h4.8v4.812h-4.8V32c8.08-.802 14.4-7.635 14.4-15.96z"/></symbol><symbol id="icon-mail" viewBox="0 0 40 32"><path d="M5 4c-.332 0-.649.14-.884.391s-.366.589-.366.943v1.525L20 16.763l16.25-9.904V5.334c0-.354-.132-.693-.366-.943S35.332 4 35 4H5zm-1.25 7.467v15.2c0 .354.132.693.366.943s.552.391.884.391h30c.331 0 .649-.141.884-.391s.366-.589.366-.943v-15.2L20 21.371l-.93-.571-15.32-9.333zM0 5.333c0-1.415.527-2.771 1.464-3.771S3.673 0 5 0h30c1.326 0 2.598.562 3.535 1.562S40 3.919 40 5.333v21.333c0 1.415-.527 2.771-1.465 3.771S36.326 31.999 35 31.999H5c-1.326 0-2.598-.562-3.536-1.562S0 28.08 0 26.666V5.333z"/></symbol><symbol id="icon-phone" viewBox="0 0 32 32"><path stroke-linecap="round" stroke-linejoin="round" stroke-width="2.353" d="M21.647 19.956c-3.757 3.953-13.339-5.544-9.568-9.512 2.303-2.424-.298-5.192-1.738-7.23-2.703-3.82-8.633 1.454-8.455 4.809.569 10.582 12.015 23.122 23.099 22.027 3.467-.342 7.451-6.604 3.473-8.893-1.987-1.145-4.718-3.404-6.811-1.203"/></symbol></defs></svg>